<mxfile host="app.diagrams.net" agent="Mozilla/5.0 (Windows NT 10.0; Win64; x64) AppleWebKit/537.36 (KHTML, like Gecko) Chrome/134.0.0.0 Safari/537.36" version="26.1.2">
  <diagram name="第 1 页" id="OEhE2V6swrAGV18DzDjD">
    <mxGraphModel dx="2389" dy="845" grid="1" gridSize="10" guides="1" tooltips="1" connect="1" arrows="1" fold="1" page="1" pageScale="1" pageWidth="827" pageHeight="1169" math="0" shadow="0">
      <root>
        <mxCell id="0" />
        <mxCell id="1" parent="0" />
        <mxCell id="3vi78cbzLKkqQ7uZX5mq-93" value="" style="rounded=0;whiteSpace=wrap;html=1;fillColor=#e1d5e7;strokeColor=#9673a6;" vertex="1" parent="1">
          <mxGeometry x="-520" y="40" width="1280" height="690" as="geometry" />
        </mxCell>
        <mxCell id="3vi78cbzLKkqQ7uZX5mq-94" value="" style="rounded=0;whiteSpace=wrap;html=1;fillColor=#dae8fc;strokeColor=#6c8ebf;" vertex="1" parent="1">
          <mxGeometry x="100" y="50" width="650" height="670" as="geometry" />
        </mxCell>
        <mxCell id="3vi78cbzLKkqQ7uZX5mq-9" value="&lt;hr&gt;&lt;hr&gt;" style="rounded=0;whiteSpace=wrap;html=1;fillColor=#d5e8d4;strokeColor=#82b366;align=left;" vertex="1" parent="1">
          <mxGeometry x="123" y="180" width="180" height="250" as="geometry" />
        </mxCell>
        <mxCell id="3vi78cbzLKkqQ7uZX5mq-3" style="edgeStyle=orthogonalEdgeStyle;rounded=0;orthogonalLoop=1;jettySize=auto;html=1;entryX=0.5;entryY=0;entryDx=0;entryDy=0;" edge="1" parent="1" source="3vi78cbzLKkqQ7uZX5mq-1" target="3vi78cbzLKkqQ7uZX5mq-2">
          <mxGeometry relative="1" as="geometry" />
        </mxCell>
        <mxCell id="3vi78cbzLKkqQ7uZX5mq-1" value="User Audio+Classification Prompt" style="rounded=0;whiteSpace=wrap;html=1;fillColor=#d5e8d4;strokeColor=#82b366;" vertex="1" parent="1">
          <mxGeometry x="140" y="210" width="146" height="40" as="geometry" />
        </mxCell>
        <mxCell id="3vi78cbzLKkqQ7uZX5mq-7" style="edgeStyle=orthogonalEdgeStyle;rounded=0;orthogonalLoop=1;jettySize=auto;html=1;entryX=0.5;entryY=0;entryDx=0;entryDy=0;" edge="1" parent="1" source="3vi78cbzLKkqQ7uZX5mq-2" target="3vi78cbzLKkqQ7uZX5mq-6">
          <mxGeometry relative="1" as="geometry" />
        </mxCell>
        <mxCell id="3vi78cbzLKkqQ7uZX5mq-2" value="LLM" style="rounded=0;whiteSpace=wrap;html=1;fillColor=#d5e8d4;strokeColor=#82b366;" vertex="1" parent="1">
          <mxGeometry x="148" y="290" width="130" height="40" as="geometry" />
        </mxCell>
        <mxCell id="3vi78cbzLKkqQ7uZX5mq-4" value="SER" style="text;html=1;align=center;verticalAlign=middle;resizable=0;points=[];autosize=1;strokeColor=none;fillColor=none;" vertex="1" parent="1">
          <mxGeometry x="170" y="260" width="50" height="30" as="geometry" />
        </mxCell>
        <mxCell id="3vi78cbzLKkqQ7uZX5mq-36" style="edgeStyle=orthogonalEdgeStyle;rounded=0;orthogonalLoop=1;jettySize=auto;html=1;exitX=0;exitY=0.5;exitDx=0;exitDy=0;entryX=1;entryY=0.5;entryDx=0;entryDy=0;" edge="1" parent="1" source="3vi78cbzLKkqQ7uZX5mq-6" target="3vi78cbzLKkqQ7uZX5mq-32">
          <mxGeometry relative="1" as="geometry">
            <mxPoint x="90" y="390" as="targetPoint" />
          </mxGeometry>
        </mxCell>
        <mxCell id="3vi78cbzLKkqQ7uZX5mq-6" value="Emotion State" style="rounded=0;whiteSpace=wrap;html=1;fillColor=#d5e8d4;strokeColor=#82b366;" vertex="1" parent="1">
          <mxGeometry x="148" y="370" width="130" height="40" as="geometry" />
        </mxCell>
        <mxCell id="3vi78cbzLKkqQ7uZX5mq-8" value="Classification" style="text;html=1;align=center;verticalAlign=middle;resizable=0;points=[];autosize=1;strokeColor=none;fillColor=none;" vertex="1" parent="1">
          <mxGeometry x="130" y="340" width="90" height="30" as="geometry" />
        </mxCell>
        <mxCell id="3vi78cbzLKkqQ7uZX5mq-10" value="&lt;b&gt;&lt;font style=&quot;font-size: 14px;&quot;&gt;SER Module&lt;/font&gt;&lt;/b&gt;" style="text;html=1;align=center;verticalAlign=middle;whiteSpace=wrap;rounded=0;" vertex="1" parent="1">
          <mxGeometry x="140" y="180" width="96" height="30" as="geometry" />
        </mxCell>
        <mxCell id="3vi78cbzLKkqQ7uZX5mq-13" value="&lt;hr&gt;&lt;hr&gt;" style="rounded=0;whiteSpace=wrap;html=1;fillColor=#fff2cc;strokeColor=#d6b656;align=left;" vertex="1" parent="1">
          <mxGeometry x="119.5" y="480" width="187" height="200" as="geometry" />
        </mxCell>
        <mxCell id="3vi78cbzLKkqQ7uZX5mq-21" value="&lt;span style=&quot;font-size: 14px;&quot;&gt;&lt;b&gt;Respond Stradegy&amp;nbsp;&amp;nbsp;&lt;/b&gt;&lt;/span&gt;" style="text;html=1;align=center;verticalAlign=middle;whiteSpace=wrap;rounded=0;" vertex="1" parent="1">
          <mxGeometry x="123" y="490" width="140" height="30" as="geometry" />
        </mxCell>
        <mxCell id="3vi78cbzLKkqQ7uZX5mq-22" value="&lt;div style=&quot;text-align: left;&quot;&gt;&lt;span style=&quot;background-color: transparent; color: light-dark(rgb(0, 0, 0), rgb(255, 255, 255));&quot;&gt;Netrual to Angry:Cognitive Reappraisal&lt;/span&gt;&lt;/div&gt;&lt;div style=&quot;text-align: left;&quot;&gt;&lt;span style=&quot;background-color: transparent;&quot;&gt;Happy to Surprised:&amp;nbsp;&lt;/span&gt;&lt;span style=&quot;background-color: transparent; color: light-dark(rgb(0, 0, 0), rgb(255, 255, 255));&quot;&gt;Situation Modification&lt;/span&gt;&lt;/div&gt;&lt;div style=&quot;text-align: left;&quot;&gt;&lt;span style=&quot;background-color: transparent; text-align: center;&quot;&gt;Sad to Anxious:&amp;nbsp;&lt;/span&gt;&lt;span style=&quot;background-color: transparent; text-align: center;&quot;&gt;Attentional Deployment (Distraction)&lt;/span&gt;&lt;/div&gt;&lt;div style=&quot;text-align: left;&quot;&gt;&lt;span style=&quot;background-color: transparent; text-align: center;&quot;&gt;Angry to Sad:&amp;nbsp;&lt;/span&gt;&lt;span style=&quot;background-color: transparent; text-align: center;&quot;&gt;Expressive Suppression&lt;/span&gt;&lt;/div&gt;&lt;div style=&quot;text-align: left;&quot;&gt;&lt;span style=&quot;background-color: transparent; text-align: center;&quot;&gt;Anxious to Neutral:&amp;nbsp;&lt;/span&gt;&lt;span style=&quot;background-color: transparent; text-align: center;&quot;&gt;Mindfulness Practice&lt;/span&gt;&lt;/div&gt;&lt;div&gt;&lt;br&gt;&lt;/div&gt;" style="text;html=1;align=center;verticalAlign=middle;whiteSpace=wrap;rounded=0;" vertex="1" parent="1">
          <mxGeometry x="123" y="540" width="180" height="120" as="geometry" />
        </mxCell>
        <mxCell id="3vi78cbzLKkqQ7uZX5mq-23" value="" style="rounded=0;whiteSpace=wrap;html=1;fillColor=#ffe6cc;strokeColor=#d79b00;" vertex="1" parent="1">
          <mxGeometry x="414" y="180" width="310" height="440" as="geometry" />
        </mxCell>
        <mxCell id="3vi78cbzLKkqQ7uZX5mq-26" style="edgeStyle=orthogonalEdgeStyle;rounded=0;orthogonalLoop=1;jettySize=auto;html=1;entryX=0.75;entryY=0;entryDx=0;entryDy=0;" edge="1" parent="1" source="3vi78cbzLKkqQ7uZX5mq-25" target="3vi78cbzLKkqQ7uZX5mq-10">
          <mxGeometry relative="1" as="geometry" />
        </mxCell>
        <mxCell id="3vi78cbzLKkqQ7uZX5mq-25" value="&lt;font style=&quot;font-size: 19px;&quot;&gt;&lt;b&gt;User Audio only Input&lt;/b&gt;&lt;/font&gt;" style="rounded=0;whiteSpace=wrap;html=1;fillColor=#e1d5e7;strokeColor=#9673a6;" vertex="1" parent="1">
          <mxGeometry x="220" y="70" width="336" height="60" as="geometry" />
        </mxCell>
        <mxCell id="3vi78cbzLKkqQ7uZX5mq-27" style="edgeStyle=orthogonalEdgeStyle;rounded=0;orthogonalLoop=1;jettySize=auto;html=1;entryX=0.476;entryY=0.003;entryDx=0;entryDy=0;entryPerimeter=0;" edge="1" parent="1" source="3vi78cbzLKkqQ7uZX5mq-25" target="3vi78cbzLKkqQ7uZX5mq-23">
          <mxGeometry relative="1" as="geometry" />
        </mxCell>
        <mxCell id="3vi78cbzLKkqQ7uZX5mq-29" style="edgeStyle=orthogonalEdgeStyle;rounded=0;orthogonalLoop=1;jettySize=auto;html=1;exitX=0.5;exitY=1;exitDx=0;exitDy=0;" edge="1" parent="1" source="3vi78cbzLKkqQ7uZX5mq-9">
          <mxGeometry relative="1" as="geometry">
            <mxPoint x="212" y="480" as="targetPoint" />
          </mxGeometry>
        </mxCell>
        <mxCell id="3vi78cbzLKkqQ7uZX5mq-54" style="edgeStyle=orthogonalEdgeStyle;rounded=0;orthogonalLoop=1;jettySize=auto;html=1;entryX=0.5;entryY=0;entryDx=0;entryDy=0;" edge="1" parent="1" source="3vi78cbzLKkqQ7uZX5mq-30" target="3vi78cbzLKkqQ7uZX5mq-53">
          <mxGeometry relative="1" as="geometry" />
        </mxCell>
        <mxCell id="3vi78cbzLKkqQ7uZX5mq-30" value="&lt;b&gt;User Audio + Stradegy based Prompt&lt;/b&gt;&lt;div&gt;&lt;b&gt;Prompt Template: &lt;/b&gt;Emotion State + Stradegy + Stradegy description&lt;/div&gt;" style="rounded=0;whiteSpace=wrap;html=1;fillColor=#ffe6cc;strokeColor=#d79b00;align=left;" vertex="1" parent="1">
          <mxGeometry x="429" y="340" width="280" height="70" as="geometry" />
        </mxCell>
        <mxCell id="3vi78cbzLKkqQ7uZX5mq-76" style="edgeStyle=orthogonalEdgeStyle;rounded=0;orthogonalLoop=1;jettySize=auto;html=1;exitX=0.5;exitY=1;exitDx=0;exitDy=0;" edge="1" parent="1" source="3vi78cbzLKkqQ7uZX5mq-32" target="3vi78cbzLKkqQ7uZX5mq-77">
          <mxGeometry relative="1" as="geometry">
            <mxPoint x="-240" y="510" as="targetPoint" />
          </mxGeometry>
        </mxCell>
        <mxCell id="3vi78cbzLKkqQ7uZX5mq-81" style="edgeStyle=orthogonalEdgeStyle;rounded=0;orthogonalLoop=1;jettySize=auto;html=1;exitX=0.5;exitY=1;exitDx=0;exitDy=0;entryX=0.5;entryY=0;entryDx=0;entryDy=0;" edge="1" parent="1" source="3vi78cbzLKkqQ7uZX5mq-32" target="3vi78cbzLKkqQ7uZX5mq-79">
          <mxGeometry relative="1" as="geometry" />
        </mxCell>
        <mxCell id="3vi78cbzLKkqQ7uZX5mq-32" value="&lt;b&gt;Emtion State track&lt;/b&gt;" style="swimlane;fontStyle=0;childLayout=stackLayout;horizontal=1;startSize=30;horizontalStack=0;resizeParent=1;resizeParentMax=0;resizeLast=0;collapsible=1;marginBottom=0;whiteSpace=wrap;html=1;fillColor=#f8cecc;strokeColor=#b85450;" vertex="1" parent="1">
          <mxGeometry x="-120" y="330" width="140" height="120" as="geometry" />
        </mxCell>
        <mxCell id="3vi78cbzLKkqQ7uZX5mq-33" value="Historic State1" style="text;strokeColor=#b85450;fillColor=#f8cecc;align=left;verticalAlign=middle;spacingLeft=4;spacingRight=4;overflow=hidden;points=[[0,0.5],[1,0.5]];portConstraint=eastwest;rotatable=0;whiteSpace=wrap;html=1;" vertex="1" parent="3vi78cbzLKkqQ7uZX5mq-32">
          <mxGeometry y="30" width="140" height="30" as="geometry" />
        </mxCell>
        <mxCell id="3vi78cbzLKkqQ7uZX5mq-34" value="Historic State2" style="text;strokeColor=#b85450;fillColor=#f8cecc;align=left;verticalAlign=middle;spacingLeft=4;spacingRight=4;overflow=hidden;points=[[0,0.5],[1,0.5]];portConstraint=eastwest;rotatable=0;whiteSpace=wrap;html=1;" vertex="1" parent="3vi78cbzLKkqQ7uZX5mq-32">
          <mxGeometry y="60" width="140" height="30" as="geometry" />
        </mxCell>
        <mxCell id="3vi78cbzLKkqQ7uZX5mq-35" value="Historic State3" style="text;strokeColor=#b85450;fillColor=#f8cecc;align=left;verticalAlign=middle;spacingLeft=4;spacingRight=4;overflow=hidden;points=[[0,0.5],[1,0.5]];portConstraint=eastwest;rotatable=0;whiteSpace=wrap;html=1;" vertex="1" parent="3vi78cbzLKkqQ7uZX5mq-32">
          <mxGeometry y="90" width="140" height="30" as="geometry" />
        </mxCell>
        <mxCell id="3vi78cbzLKkqQ7uZX5mq-38" value="&lt;b&gt;&lt;font style=&quot;font-size: 14px;&quot;&gt;Respond generation&lt;/font&gt;&lt;/b&gt;" style="text;html=1;align=center;verticalAlign=middle;whiteSpace=wrap;rounded=0;" vertex="1" parent="1">
          <mxGeometry x="420" y="180" width="160" height="30" as="geometry" />
        </mxCell>
        <mxCell id="3vi78cbzLKkqQ7uZX5mq-46" style="edgeStyle=orthogonalEdgeStyle;rounded=0;orthogonalLoop=1;jettySize=auto;html=1;exitX=0.5;exitY=1;exitDx=0;exitDy=0;" edge="1" parent="1" source="3vi78cbzLKkqQ7uZX5mq-39" target="3vi78cbzLKkqQ7uZX5mq-30">
          <mxGeometry relative="1" as="geometry" />
        </mxCell>
        <mxCell id="3vi78cbzLKkqQ7uZX5mq-39" value="&lt;b&gt;&lt;font style=&quot;font-size: 14px;&quot;&gt;SER Module&lt;/font&gt;&lt;/b&gt;" style="rounded=0;whiteSpace=wrap;html=1;fillColor=#d5e8d4;strokeColor=#82b366;" vertex="1" parent="1">
          <mxGeometry x="436" y="215" width="120" height="40" as="geometry" />
        </mxCell>
        <mxCell id="3vi78cbzLKkqQ7uZX5mq-45" style="edgeStyle=orthogonalEdgeStyle;rounded=0;orthogonalLoop=1;jettySize=auto;html=1;exitX=0.5;exitY=1;exitDx=0;exitDy=0;" edge="1" parent="1" source="3vi78cbzLKkqQ7uZX5mq-40" target="3vi78cbzLKkqQ7uZX5mq-30">
          <mxGeometry relative="1" as="geometry" />
        </mxCell>
        <mxCell id="3vi78cbzLKkqQ7uZX5mq-40" value="&lt;b style=&quot;font-size: 14px;&quot;&gt;Respond Stradegy&amp;nbsp; RAG&lt;/b&gt;" style="rounded=0;whiteSpace=wrap;html=1;fillColor=#fff2cc;strokeColor=#d6b656;" vertex="1" parent="1">
          <mxGeometry x="580" y="215" width="120" height="40" as="geometry" />
        </mxCell>
        <mxCell id="3vi78cbzLKkqQ7uZX5mq-52" value="&lt;b&gt;&lt;font style=&quot;font-size: 14px;&quot;&gt;LLM text response&lt;/font&gt;&lt;/b&gt;" style="rounded=0;whiteSpace=wrap;html=1;fillColor=#e1d5e7;strokeColor=#9673a6;" vertex="1" parent="1">
          <mxGeometry x="480" y="525" width="180" height="60" as="geometry" />
        </mxCell>
        <mxCell id="3vi78cbzLKkqQ7uZX5mq-56" style="edgeStyle=orthogonalEdgeStyle;rounded=0;orthogonalLoop=1;jettySize=auto;html=1;entryX=0.5;entryY=0;entryDx=0;entryDy=0;" edge="1" parent="1" source="3vi78cbzLKkqQ7uZX5mq-53" target="3vi78cbzLKkqQ7uZX5mq-52">
          <mxGeometry relative="1" as="geometry" />
        </mxCell>
        <mxCell id="3vi78cbzLKkqQ7uZX5mq-53" value="&lt;b&gt;&lt;font style=&quot;font-size: 14px;&quot;&gt;Audio-text-LLM&lt;/font&gt;&lt;/b&gt;" style="rounded=0;whiteSpace=wrap;html=1;fillColor=#ffe6cc;strokeColor=#d79b00;" vertex="1" parent="1">
          <mxGeometry x="469" y="440" width="200" height="60" as="geometry" />
        </mxCell>
        <mxCell id="3vi78cbzLKkqQ7uZX5mq-59" value="&lt;b&gt;&lt;font style=&quot;font-size: 27px;&quot;&gt;Two-stage process&lt;/font&gt;&lt;/b&gt;" style="text;strokeColor=none;fillColor=none;align=left;verticalAlign=middle;spacingLeft=4;spacingRight=4;overflow=hidden;points=[[0,0.5],[1,0.5]];portConstraint=eastwest;rotatable=0;whiteSpace=wrap;html=1;" vertex="1" parent="1">
          <mxGeometry x="484" y="660" width="276" height="60" as="geometry" />
        </mxCell>
        <mxCell id="3vi78cbzLKkqQ7uZX5mq-63" style="edgeStyle=orthogonalEdgeStyle;rounded=0;orthogonalLoop=1;jettySize=auto;html=1;exitX=0.5;exitY=1;exitDx=0;exitDy=0;entryX=0.5;entryY=0;entryDx=0;entryDy=0;" edge="1" parent="1" source="3vi78cbzLKkqQ7uZX5mq-61" target="3vi78cbzLKkqQ7uZX5mq-62">
          <mxGeometry relative="1" as="geometry" />
        </mxCell>
        <mxCell id="3vi78cbzLKkqQ7uZX5mq-61" value="&lt;b style=&quot;font-size: 19px;&quot;&gt;Next Dialogue&lt;/b&gt;" style="rounded=0;whiteSpace=wrap;html=1;fillColor=#e1d5e7;strokeColor=#9673a6;" vertex="1" parent="1">
          <mxGeometry x="-460" y="285" width="216" height="50" as="geometry" />
        </mxCell>
        <mxCell id="3vi78cbzLKkqQ7uZX5mq-84" style="edgeStyle=orthogonalEdgeStyle;rounded=0;orthogonalLoop=1;jettySize=auto;html=1;exitX=0.5;exitY=1;exitDx=0;exitDy=0;entryX=0.5;entryY=0;entryDx=0;entryDy=0;" edge="1" parent="1" source="3vi78cbzLKkqQ7uZX5mq-62" target="3vi78cbzLKkqQ7uZX5mq-83">
          <mxGeometry relative="1" as="geometry" />
        </mxCell>
        <mxCell id="3vi78cbzLKkqQ7uZX5mq-62" value="&lt;b style=&quot;text-align: left;&quot;&gt;&lt;font style=&quot;font-size: 19px;&quot;&gt;Two-stage process&lt;/font&gt;&lt;/b&gt;" style="rounded=0;whiteSpace=wrap;html=1;fillColor=#dae8fc;strokeColor=#6c8ebf;" vertex="1" parent="1">
          <mxGeometry x="-457" y="360" width="210" height="60" as="geometry" />
        </mxCell>
        <mxCell id="3vi78cbzLKkqQ7uZX5mq-64" style="edgeStyle=orthogonalEdgeStyle;rounded=0;orthogonalLoop=1;jettySize=auto;html=1;exitX=1;exitY=0.5;exitDx=0;exitDy=0;" edge="1" parent="1" source="3vi78cbzLKkqQ7uZX5mq-62">
          <mxGeometry relative="1" as="geometry">
            <mxPoint x="-120" y="390" as="targetPoint" />
          </mxGeometry>
        </mxCell>
        <mxCell id="3vi78cbzLKkqQ7uZX5mq-65" value="&lt;b&gt;Upate&amp;nbsp; and check changes&lt;/b&gt;" style="text;html=1;align=center;verticalAlign=middle;whiteSpace=wrap;rounded=0;" vertex="1" parent="1">
          <mxGeometry x="-230" y="350" width="90" height="30" as="geometry" />
        </mxCell>
        <mxCell id="3vi78cbzLKkqQ7uZX5mq-77" value="&lt;b&gt;Transition Stradegy&lt;/b&gt;" style="rounded=0;whiteSpace=wrap;html=1;fillColor=#fff2cc;strokeColor=#d6b656;" vertex="1" parent="1">
          <mxGeometry x="-190" y="550" width="120" height="60" as="geometry" />
        </mxCell>
        <mxCell id="3vi78cbzLKkqQ7uZX5mq-79" value="&lt;b&gt;Regular Stradegy&lt;/b&gt;" style="rounded=0;whiteSpace=wrap;html=1;fillColor=#fff2cc;strokeColor=#d6b656;" vertex="1" parent="1">
          <mxGeometry x="-60" y="550" width="120" height="60" as="geometry" />
        </mxCell>
        <mxCell id="3vi78cbzLKkqQ7uZX5mq-82" value="&lt;b&gt;Transition or not?&lt;/b&gt;" style="text;html=1;align=center;verticalAlign=middle;whiteSpace=wrap;rounded=0;" vertex="1" parent="1">
          <mxGeometry x="-110" y="460" width="60" height="30" as="geometry" />
        </mxCell>
        <mxCell id="3vi78cbzLKkqQ7uZX5mq-86" style="edgeStyle=orthogonalEdgeStyle;rounded=0;orthogonalLoop=1;jettySize=auto;html=1;entryX=0.5;entryY=0;entryDx=0;entryDy=0;" edge="1" parent="1" source="3vi78cbzLKkqQ7uZX5mq-83" target="3vi78cbzLKkqQ7uZX5mq-85">
          <mxGeometry relative="1" as="geometry" />
        </mxCell>
        <mxCell id="3vi78cbzLKkqQ7uZX5mq-83" value="&lt;font style=&quot;font-size: 19px;&quot;&gt;&lt;b&gt;Next Dialogue&lt;/b&gt;&lt;/font&gt;" style="rounded=0;whiteSpace=wrap;html=1;fillColor=#e1d5e7;strokeColor=#9673a6;" vertex="1" parent="1">
          <mxGeometry x="-460" y="450" width="216" height="50" as="geometry" />
        </mxCell>
        <mxCell id="3vi78cbzLKkqQ7uZX5mq-85" value="&lt;b style=&quot;text-align: left;&quot;&gt;&lt;font style=&quot;font-size: 19px;&quot;&gt;Two-stage process&lt;/font&gt;&lt;/b&gt;" style="rounded=0;whiteSpace=wrap;html=1;fillColor=#dae8fc;strokeColor=#6c8ebf;" vertex="1" parent="1">
          <mxGeometry x="-457" y="540" width="210" height="60" as="geometry" />
        </mxCell>
        <mxCell id="3vi78cbzLKkqQ7uZX5mq-89" value="" style="endArrow=classic;html=1;rounded=0;exitX=1;exitY=0.75;exitDx=0;exitDy=0;" edge="1" parent="1" source="3vi78cbzLKkqQ7uZX5mq-85">
          <mxGeometry width="50" height="50" relative="1" as="geometry">
            <mxPoint x="-150" y="440" as="sourcePoint" />
            <mxPoint x="-120" y="390" as="targetPoint" />
          </mxGeometry>
        </mxCell>
        <mxCell id="3vi78cbzLKkqQ7uZX5mq-90" value="&lt;b&gt;Upate&amp;nbsp; and check changes&lt;/b&gt;" style="text;html=1;align=center;verticalAlign=middle;whiteSpace=wrap;rounded=0;" vertex="1" parent="1">
          <mxGeometry x="-230" y="455" width="90" height="30" as="geometry" />
        </mxCell>
        <mxCell id="3vi78cbzLKkqQ7uZX5mq-98" style="edgeStyle=orthogonalEdgeStyle;rounded=0;orthogonalLoop=1;jettySize=auto;html=1;" edge="1" parent="1" source="3vi78cbzLKkqQ7uZX5mq-95" target="3vi78cbzLKkqQ7uZX5mq-96">
          <mxGeometry relative="1" as="geometry" />
        </mxCell>
        <mxCell id="3vi78cbzLKkqQ7uZX5mq-95" value="&lt;font style=&quot;font-size: 19px;&quot;&gt;&lt;b&gt;New Audio&lt;/b&gt;&lt;/font&gt;" style="rounded=0;whiteSpace=wrap;html=1;fillColor=#e1d5e7;strokeColor=#9673a6;" vertex="1" parent="1">
          <mxGeometry x="-460" y="110" width="216" height="50" as="geometry" />
        </mxCell>
        <mxCell id="3vi78cbzLKkqQ7uZX5mq-97" style="edgeStyle=orthogonalEdgeStyle;rounded=0;orthogonalLoop=1;jettySize=auto;html=1;" edge="1" parent="1" source="3vi78cbzLKkqQ7uZX5mq-96" target="3vi78cbzLKkqQ7uZX5mq-61">
          <mxGeometry relative="1" as="geometry" />
        </mxCell>
        <mxCell id="3vi78cbzLKkqQ7uZX5mq-96" value="&lt;b style=&quot;text-align: left;&quot;&gt;&lt;font style=&quot;font-size: 19px;&quot;&gt;Two-stage process&lt;/font&gt;&lt;/b&gt;" style="rounded=0;whiteSpace=wrap;html=1;fillColor=#dae8fc;strokeColor=#6c8ebf;" vertex="1" parent="1">
          <mxGeometry x="-457" y="195" width="210" height="60" as="geometry" />
        </mxCell>
        <mxCell id="3vi78cbzLKkqQ7uZX5mq-99" value="" style="endArrow=classic;html=1;rounded=0;exitX=1;exitY=0.5;exitDx=0;exitDy=0;entryX=0;entryY=0.5;entryDx=0;entryDy=0;" edge="1" parent="1" source="3vi78cbzLKkqQ7uZX5mq-96" target="3vi78cbzLKkqQ7uZX5mq-32">
          <mxGeometry width="50" height="50" relative="1" as="geometry">
            <mxPoint x="-50" y="400" as="sourcePoint" />
            <mxPoint y="350" as="targetPoint" />
          </mxGeometry>
        </mxCell>
      </root>
    </mxGraphModel>
  </diagram>
</mxfile>
